<svg width="349" height="349" viewBox="0 0 349 349" fill="none" xmlns="http://www.w3.org/2000/svg">
<mask id="mask0_515_997" style="mask-type:alpha" maskUnits="userSpaceOnUse" x="0" y="0" width="349" height="349">
<circle cx="174.562" cy="174.426" r="173.961" fill="#D9D9D9"/>
</mask>
<g mask="url(#mask0_515_997)">
<path d="M89.6025 62.4102C110.334 62.4102 128.435 73.6738 138.119 90.415C128.435 107.156 110.334 118.42 89.6025 118.42C68.8711 118.42 50.7702 107.156 41.0859 90.415C50.7702 73.6738 68.8711 62.4102 89.6025 62.4102ZM89.626 75.4775C81.3773 75.4778 74.6905 82.1644 74.6904 90.4131C74.6904 98.6618 81.3773 105.348 89.626 105.349C97.8748 105.349 104.562 98.6619 104.562 90.4131C104.562 82.1643 97.8748 75.4775 89.626 75.4775Z" fill="white"/>
<path d="M308.034 286.439H78.3955L44.1719 106.764C55.692 118.551 71.7739 125.879 89.5723 125.879C112.175 125.879 132.009 114.062 143.248 96.3008L308.034 286.439ZM154.211 227.971C142.151 227.971 134.335 234.648 134.335 243.551C134.335 252.453 142.151 259.131 154.211 259.131C166.788 259.131 172.224 253.644 173.104 247.795H162.078C162.078 252.194 159.128 256.388 154.314 256.388C148.414 256.388 145.878 250.538 145.878 243.551C145.878 236.511 148.414 230.715 154.314 230.715C159.128 230.715 162.078 234.855 162.078 239.255H173.104C172.224 233.458 166.788 227.971 154.211 227.971ZM196.455 227.971C184.395 227.971 176.477 234.648 176.477 243.551C176.477 252.453 184.395 259.131 196.455 259.131C208.515 259.131 216.383 252.453 216.383 243.551C216.383 234.648 208.515 227.971 196.455 227.971ZM196.455 230.715C202.356 230.715 204.841 236.511 204.841 243.551C204.841 250.538 202.356 256.388 196.455 256.388C190.555 256.388 188.019 250.538 188.019 243.551C188.019 236.512 190.555 230.715 196.455 230.715ZM94.5195 189.215C82.4596 189.215 74.6436 195.892 74.6436 204.795C74.6436 213.698 82.4596 220.375 94.5195 220.375C107.097 220.375 112.532 214.888 113.412 209.039H102.388C102.388 213.439 99.4367 217.632 94.623 217.632C88.7226 217.632 86.1865 211.782 86.1865 204.795C86.1865 197.756 88.7226 191.959 94.623 191.959C99.4367 191.959 102.388 196.099 102.388 200.499H113.412C112.532 194.702 107.097 189.215 94.5195 189.215ZM198.149 189.215C186.038 189.215 178.274 195.892 178.274 204.795C178.274 213.698 186.09 220.375 198.149 220.375C210.727 220.375 216.162 214.888 217.042 209.039H206.018C206.018 214.163 203.067 217.632 198.253 217.632C192.456 217.632 189.972 212.714 189.868 205.364H217.042C217.042 196.72 211.503 189.215 198.149 189.215ZM117.63 219.342H129.172V190.253H117.63V219.342ZM159.49 189.215C153.848 189.215 149.138 191.959 146.188 194.34V190.25H134.646V219.34H146.188V197.445C148.051 195.634 151.364 193.201 155.401 193.201C159.697 193.201 162.337 195.841 162.337 202.207V219.34H173.879V200.913C173.879 192.218 167.979 189.215 159.49 189.215ZM198.305 191.959C203.17 191.959 206.018 194.961 206.018 202.052H189.92C190.438 196.307 192.56 191.959 198.305 191.959ZM123.427 173.483C119.493 173.483 116.284 176.692 116.284 180.574C116.284 184.508 119.493 187.717 123.427 187.717C127.309 187.717 130.518 184.508 130.518 180.574C130.518 176.692 127.309 173.483 123.427 173.483Z" fill="#FFE047"/>
</g>
</svg>
